<svg width="31" height="179" viewBox="0 0 31 179" fill="none" xmlns="http://www.w3.org/2000/svg">
<path d="M15.4799 30C21.7798 30 26.1207 27.0955 26.1207 15.9995C26.1207 4.90396 21.7798 2 15.4799 2C9.18032 2 4.83716 4.90444 4.83716 15.9995C4.83716 27.0956 9.17992 30 15.4799 30Z" fill="white"/>
<path d="M16.6454 8.91333L19.0309 11.2284L16.6468 13.5415L16.6454 8.91333ZM16.6454 23.0847L19.0309 20.7702L16.6468 18.4565L16.6454 23.0847ZM14.0983 15.9991L8.94139 10.9818L10.4362 9.53159L14.5442 13.5201V3.96192L22.0156 11.2118L17.0824 15.9991L22.0164 20.7877L14.5448 28.0377V18.4788L10.4356 22.4678L8.94081 21.0168L14.0983 15.9991ZM15.4799 30C21.7798 30 26.1207 27.0955 26.1207 15.9995C26.1207 4.90396 21.7798 2 15.4799 2C9.18032 2 4.83716 4.90444 4.83716 15.9995C4.83716 27.0956 9.17991 30 15.4799 30Z" fill="#0060A9"/>
<path d="M9.97085 116.195C9.91526 116.095 9.8768 115.985 9.85718 115.872C9.87894 115.985 9.91764 116.094 9.97085 116.195ZM10.1106 116.373C10.1643 116.428 10.2248 116.476 10.2918 116.51C10.2249 116.474 10.1639 116.428 10.1111 116.373H10.1106Z" fill="#083042"/>
<path d="M15.5616 122.492H15.5277C15.1886 122.493 14.8546 122.406 14.5569 122.238L7.74086 118.3C7.33865 118.067 7.09123 117.635 7.09123 117.168V109.157C7.09123 108.814 7.15145 108.484 7.29197 108.196L1.96238 105.13C1.74156 105.61 1.62789 106.152 1.63442 106.722V119.954C1.63844 120.336 1.7403 120.711 1.92965 121.04C2.11901 121.369 2.38913 121.64 2.71263 121.826L13.9544 128.329C14.4502 128.617 15.0058 128.754 15.5548 128.754V128.748C15.5681 127.918 15.5616 124.59 15.5616 122.492Z" fill="#083042"/>
<path d="M20.911 109.65L20.8707 109.589C20.8373 109.541 20.8041 109.499 20.7708 109.452C20.8041 109.493 20.8373 109.541 20.8707 109.589C20.887 109.607 20.9006 109.627 20.911 109.65ZM15.3004 106.44C15.3343 106.44 15.3611 106.433 15.3947 106.433C15.3611 106.44 15.3275 106.44 15.3004 106.44Z" fill="#3DDB85"/>
<path d="M7.28522 108.189C7.43462 107.869 7.67236 107.602 7.96847 107.421L14.3825 103.546C14.6764 103.367 15.0102 103.271 15.351 103.268C15.6917 103.264 16.0274 103.353 16.3247 103.525L22.806 107.277C23.0969 107.445 23.3466 107.68 23.5359 107.963L28.7787 104.76C28.4669 104.296 28.0571 103.911 27.5803 103.635L16.8734 97.441C16.3833 97.158 15.8302 97.0122 15.2688 97.0182C14.7074 97.0242 14.1573 97.1818 13.6729 97.4753L3.08729 103.868C2.59866 104.163 2.20683 104.603 1.9624 105.13L7.28522 108.189Z" fill="#3DDC84"/>
<path d="M9.98309 109.733C9.99663 109.706 10.0099 109.678 10.0237 109.658C10.0099 109.685 9.99688 109.706 9.98309 109.733Z" fill="#3DDB85"/>
<path d="M28.7719 104.76L23.5291 107.963C23.7299 108.265 23.8505 108.621 23.8568 108.985V116.613C23.8609 116.962 23.775 117.306 23.608 117.61C23.441 117.914 23.1988 118.166 22.9063 118.341L16.4918 122.218C16.2085 122.388 15.8885 122.482 15.5609 122.492C15.5679 124.584 15.5679 127.911 15.5543 128.741V128.748C16.1166 128.741 16.6678 128.585 17.1547 128.295L27.7406 121.895C28.725 121.298 29.3277 120.214 29.3141 119.041V106.454C29.3073 105.844 29.1066 105.261 28.7719 104.76Z" fill="#4285F4"/>
<path d="M21.0326 115.797C21.0258 115.811 21.0258 115.824 21.0191 115.839C21.0266 115.826 21.0312 115.812 21.0326 115.797ZM20.9654 109.74C20.9516 109.705 20.9315 109.678 20.9114 109.644C20.9315 109.678 20.9518 109.712 20.9654 109.74ZM16.1577 119.144L20.4563 116.544L16.1577 119.144V119.144ZM20.9787 115.954C20.9651 115.989 20.9451 116.023 20.9313 116.058C20.9451 116.016 20.9584 115.982 20.9787 115.954Z" fill="#4285F4"/>
<path d="M9.96408 109.795C9.90951 109.928 9.87564 110.069 9.86371 110.213C9.85693 110.268 9.85693 110.323 9.85693 110.385V115.756C9.85693 115.797 9.85693 115.831 9.86371 115.872C9.87725 115.989 9.9174 116.099 9.97738 116.195C10.0178 116.263 10.0644 116.318 10.1116 116.373C10.1653 116.428 10.2253 116.476 10.292 116.51L14.8588 119.151C15.0575 119.264 15.281 119.323 15.508 119.322H15.5551C15.768 119.315 15.9755 119.251 16.1578 119.137L20.4564 116.538C20.4832 116.524 20.5033 116.503 20.5301 116.49C20.5771 116.455 20.624 116.421 20.6641 116.38C20.7272 116.321 20.7851 116.257 20.838 116.188C20.8714 116.14 20.905 116.092 20.9319 116.044C20.9517 116.01 20.9655 115.975 20.9785 115.941C20.9921 115.907 21.0124 115.865 21.0257 115.824C21.0322 115.81 21.0322 115.797 21.039 115.783C21.0796 115.65 21.0999 115.511 21.0992 115.371V110.261C21.0992 110.165 21.0857 110.076 21.0659 109.987C21.0526 109.925 21.032 109.87 21.0122 109.815L20.972 109.733C20.9587 109.699 20.9382 109.671 20.9183 109.637L20.8782 109.575C20.8448 109.527 20.8112 109.486 20.7778 109.438C20.6687 109.307 20.537 109.197 20.3894 109.116L16.0442 106.599C15.9693 106.555 15.8907 106.518 15.8095 106.489C15.7006 106.454 15.5882 106.434 15.4746 106.427H15.3875C15.3544 106.427 15.3275 106.427 15.2941 106.434C15.2172 106.441 15.141 106.454 15.0663 106.475C15.053 106.482 15.0397 106.482 15.0262 106.489C14.9258 106.516 14.832 106.564 14.7381 106.619L10.4396 109.219C10.3148 109.295 10.2055 109.395 10.1179 109.514C10.0848 109.562 10.0511 109.61 10.0243 109.658C10.011 109.685 9.99769 109.706 9.98415 109.733L9.96408 109.795Z" fill="#D6F0FF"/>
<path d="M15.5543 119.322H15.5074C15.2803 119.323 15.0567 119.264 14.8578 119.151L10.2915 116.51C10.2259 116.472 10.1651 116.426 10.1106 116.373C10.0582 116.32 10.0131 116.26 9.97661 116.194C9.92102 116.094 9.88256 115.985 9.86294 115.872C9.85592 115.831 9.85592 115.797 9.85592 115.756V110.384C9.85592 110.33 9.85592 110.268 9.86294 110.213C9.87575 110.069 9.90937 109.928 9.96331 109.794L8.73104 109.02L7.28473 108.19C7.15074 108.478 7.08398 108.807 7.08398 109.15V117.162C7.08793 117.392 7.14988 117.618 7.26373 117.816C7.37759 118.015 7.53943 118.179 7.73337 118.294L14.5434 122.238C14.8398 122.409 15.1746 122.496 15.5142 122.492H15.5481C15.5481 121.469 15.541 120.742 15.541 120.742L15.5543 119.322Z" fill="#083042"/>
<path d="M15.5543 119.322H15.5074C15.2803 119.323 15.0567 119.264 14.8578 119.151L10.2915 116.51C10.2259 116.472 10.1651 116.426 10.1106 116.373C10.0582 116.32 10.0131 116.26 9.97661 116.194C9.92102 116.094 9.88256 115.985 9.86294 115.872C9.85592 115.831 9.85592 115.797 9.85592 115.756V110.384C9.85592 110.33 9.85592 110.268 9.86294 110.213C9.87575 110.069 9.90937 109.928 9.96331 109.794L8.73104 109.02L7.28473 108.19C7.15074 108.478 7.08398 108.807 7.08398 109.15V117.162C7.08793 117.392 7.14988 117.618 7.26373 117.816C7.37759 118.015 7.53943 118.179 7.73337 118.294L14.5434 122.238C14.8398 122.409 15.1746 122.496 15.5142 122.492H15.5481C15.5481 121.469 15.541 120.742 15.541 120.742L15.5543 119.322Z" fill="#041619"/>
<path d="M22.799 107.277L16.3174 103.525C16.0201 103.353 15.6845 103.264 15.3438 103.268C15.0031 103.271 14.6693 103.367 14.3755 103.546L7.96145 107.422C7.6638 107.6 7.42552 107.868 7.27795 108.19L8.73152 109.02L9.96331 109.795L9.98314 109.733C9.99668 109.705 10.01 109.678 10.0233 109.658C10.0501 109.61 10.0838 109.562 10.1171 109.514C10.2042 109.397 10.3113 109.301 10.4388 109.219L14.7371 106.619C14.829 106.565 14.925 106.522 15.0252 106.489C15.0387 106.482 15.052 106.482 15.0653 106.475C15.14 106.454 15.2158 106.44 15.2929 106.434C15.3263 106.434 15.3531 106.427 15.3867 106.427H15.4738C15.5872 106.434 15.6995 106.454 15.8085 106.488C15.8911 106.515 15.9692 106.552 16.0429 106.598L20.3881 109.116C20.5348 109.199 20.6663 109.308 20.777 109.438C20.8102 109.479 20.844 109.527 20.8772 109.575L20.9175 109.637L22.0289 108.876L23.5354 107.95C23.3412 107.682 23.0935 107.442 22.799 107.277Z" fill="#3DDB85"/>
<path d="M22.799 107.277L16.3174 103.525C16.0201 103.353 15.6845 103.264 15.3438 103.268C15.0031 103.271 14.6693 103.367 14.3755 103.546L7.96145 107.422C7.6638 107.6 7.42552 107.868 7.27795 108.19L8.73152 109.02L9.96331 109.795L9.98314 109.733C9.99668 109.705 10.01 109.678 10.0233 109.658C10.0501 109.61 10.0838 109.562 10.1171 109.514C10.2042 109.397 10.3113 109.301 10.4388 109.219L14.7371 106.619C14.829 106.565 14.925 106.522 15.0252 106.489C15.0387 106.482 15.052 106.482 15.0653 106.475C15.14 106.454 15.2158 106.44 15.2929 106.434C15.3263 106.434 15.3531 106.427 15.3867 106.427H15.4738C15.5872 106.434 15.6995 106.454 15.8085 106.488C15.8911 106.515 15.9692 106.552 16.0429 106.598L20.3881 109.116C20.5348 109.199 20.6663 109.308 20.777 109.438C20.8102 109.479 20.844 109.527 20.8772 109.575L20.9175 109.637L22.0289 108.876L23.5354 107.95C23.3412 107.682 23.0935 107.442 22.799 107.277Z" fill="#37BF6E"/>
<path d="M20.9111 109.651C20.9311 109.685 20.9447 109.712 20.9645 109.747L21.0049 109.829C21.0611 109.97 21.0907 110.122 21.092 110.275V115.385C21.0925 115.525 21.0721 115.663 21.0315 115.797C21.025 115.81 21.025 115.824 21.0182 115.838C21.0055 115.878 20.9899 115.917 20.9715 115.955C20.9577 115.988 20.9377 116.023 20.9244 116.057C20.8978 116.105 20.8641 116.153 20.8305 116.201C20.7781 116.27 20.7199 116.334 20.6566 116.393C20.6165 116.434 20.5696 116.469 20.5226 116.503C20.4958 116.517 20.476 116.537 20.4491 116.551L16.1503 119.151C15.9655 119.258 15.7594 119.322 15.5476 119.336V120.756C15.5476 120.756 15.5476 121.483 15.5544 122.505C15.8825 122.499 16.2033 122.404 16.4853 122.231L22.8994 118.355C23.4956 117.992 23.8571 117.333 23.8504 116.627V108.999C23.8438 108.628 23.7234 108.278 23.5226 107.977L22.0156 108.903L20.9111 109.651Z" fill="#4285F4"/>
<path d="M20.9111 109.651C20.9311 109.685 20.9447 109.712 20.9645 109.747L21.0049 109.829C21.0611 109.97 21.0907 110.122 21.092 110.275V115.385C21.0925 115.525 21.0721 115.663 21.0315 115.797C21.025 115.81 21.025 115.824 21.0182 115.838C21.0055 115.878 20.9899 115.917 20.9715 115.955C20.9577 115.988 20.9377 116.023 20.9244 116.057C20.8978 116.105 20.8641 116.153 20.8305 116.201C20.7781 116.27 20.7199 116.334 20.6566 116.393C20.6165 116.434 20.5696 116.469 20.5226 116.503C20.4958 116.517 20.476 116.537 20.4491 116.551L16.1503 119.151C15.9655 119.258 15.7594 119.322 15.5476 119.336V120.756C15.5476 120.756 15.5476 121.483 15.5544 122.505C15.8825 122.499 16.2033 122.404 16.4853 122.231L22.8994 118.355C23.4956 117.992 23.8571 117.333 23.8504 116.627V108.999C23.8438 108.628 23.7234 108.278 23.5226 107.977L22.0156 108.903L20.9111 109.651Z" fill="#3870B2"/>
<path d="M15.0326 106.496C14.932 106.523 14.8382 106.571 14.7448 106.626L10.446 109.226L14.7443 106.626C14.8337 106.569 14.9306 106.525 15.0322 106.496L15.0326 106.496Z" fill="#D6F0FF"/>
<path opacity="0.1" d="M15.0326 106.496C14.932 106.523 14.8382 106.571 14.7448 106.626L10.446 109.226L14.7443 106.626C14.8337 106.569 14.9306 106.525 15.0322 106.496L15.0326 106.496Z" fill="black"/>
<path d="M21.0049 109.822C21.025 109.878 21.0425 109.935 21.0571 109.993C21.044 109.939 21.0239 109.884 21.0044 109.822H21.0049Z" fill="#D6F0FF"/>
<path opacity="0.1" d="M21.0049 109.822C21.025 109.878 21.0425 109.935 21.0571 109.993C21.044 109.939 21.0239 109.884 21.0044 109.822H21.0049Z" fill="black"/>
<g clip-path="url(#clip0_194_4)">
<path d="M3 76.8079L15.04 64.3626L27 76.8079H3Z" fill="url(#paint0_linear_194_4)"/>
<path d="M3 52H15.04L3 65.4376V52Z" fill="url(#paint1_linear_194_4)"/>
<path d="M15.04 52L3 65.1069V76.8079L15.04 64.3626L27 52H15.04Z" fill="url(#paint2_linear_194_4)"/>
</g>
<g clip-path="url(#clip1_194_4)">
<path d="M21 169.062C23.9062 165.406 25.3125 162.406 25.3125 160.25C25.3125 154.531 20.7187 149.938 15 149.938C9.28125 149.938 4.6875 154.531 4.6875 160.25C4.6875 162.5 6.09375 165.406 9 169.062C5.90625 169.531 0.9375 170.656 0.9375 173.375C0.9375 176.563 8.25 178.062 15 178.062C21.75 178.062 29.0625 176.563 29.0625 173.375C29.0625 170.656 24.0937 169.531 21 169.062Z" fill="#EE3F2F"/>
<path d="M21 169.062C20.7187 169.531 20.3437 169.906 19.9687 170.375C19.875 170.469 19.7813 170.656 19.6875 170.75C18.9375 171.594 18.2812 172.344 17.7187 172.906C17.625 173 17.5313 173.187 17.4375 173.281C17.3438 173.281 17.3437 173.375 17.25 173.375C16.875 173.75 16.5937 174.125 16.3125 174.313C16.2187 174.406 16.2188 174.5 16.125 174.5C15.9375 174.688 15.9375 174.687 15.9375 174.781C15.8437 174.875 15.75 174.969 15.75 174.969C15.4687 175.156 15.2813 175.25 15 175.25C14.7187 175.25 14.5313 175.156 14.3438 174.969C14.3438 174.969 14.25 174.875 14.1563 174.781C14.1563 174.781 14.0625 174.687 13.9687 174.594C13.875 174.5 13.875 174.5 13.7812 174.406C13.5 174.125 13.2187 173.844 12.8437 173.469C12.8437 173.469 12.75 173.375 12.6562 173.375C12.5625 173.281 12.4687 173.188 12.375 173C11.8125 172.344 11.1563 171.687 10.4063 170.844C10.3125 170.75 10.2188 170.562 10.125 170.469C9.75 170 9.375 169.531 9 169.156C5.90625 169.531 0.9375 170.656 0.9375 173.375C0.9375 176.562 8.25 178.062 15 178.062C21.75 178.062 29.0625 176.562 29.0625 173.375C29.0625 170.656 24.0937 169.531 21 169.062Z" fill="#E3B4B4"/>
<path d="M15 153.688C11.9063 153.688 9.375 156.219 9.375 159.312C9.375 162.406 11.9063 164.938 15 164.938C18.0937 164.938 20.625 162.406 20.625 159.312C20.625 156.219 18.0937 153.688 15 153.688Z" fill="#E3B4B4"/>
</g>
<defs>
<linearGradient id="paint0_linear_194_4" x1="641.376" y1="1888.34" x2="998.824" y2="514.28" gradientUnits="userSpaceOnUse">
<stop offset="0.09677" stop-color="#0095D5"/>
<stop offset="0.3007" stop-color="#238AD9"/>
<stop offset="0.6211" stop-color="#557BDE"/>
<stop offset="0.8643" stop-color="#7472E2"/>
<stop offset="1" stop-color="#806EE3"/>
</linearGradient>
<linearGradient id="paint1_linear_194_4" x1="171.368" y1="550.602" x2="895.905" y2="-50.6339" gradientUnits="userSpaceOnUse">
<stop offset="0.1183" stop-color="#0095D5"/>
<stop offset="0.4178" stop-color="#3C83DC"/>
<stop offset="0.6962" stop-color="#6D74E1"/>
<stop offset="0.8333" stop-color="#806EE3"/>
</linearGradient>
<linearGradient id="paint2_linear_194_4" x1="-401.068" y1="2332.83" x2="1906.18" y2="100.727" gradientUnits="userSpaceOnUse">
<stop offset="0.1075" stop-color="#C757BC"/>
<stop offset="0.2138" stop-color="#D0609A"/>
<stop offset="0.4254" stop-color="#E1725C"/>
<stop offset="0.6048" stop-color="#EE7E2F"/>
<stop offset="0.743" stop-color="#F58613"/>
<stop offset="0.8232" stop-color="#F88909"/>
</linearGradient>
<clipPath id="clip0_194_4">
<rect width="24" height="24.8079" fill="white" transform="translate(3 52)"/>
</clipPath>
<clipPath id="clip1_194_4">
<rect width="30" height="30" fill="white" transform="translate(0 149)"/>
</clipPath>
</defs>
</svg>
