<svg width="18" height="19" viewBox="0 0 18 19" fill="none" xmlns="http://www.w3.org/2000/svg">
<g clip-path="url(#clip0_187_23)">
<path d="M15.1875 11.75H14.0625C13.9133 11.75 13.7702 11.8093 13.6648 11.9148C13.5593 12.0202 13.5 12.1633 13.5 12.3125V16.25H2.25V5H7.3125C7.46168 5 7.60476 4.94074 7.71025 4.83525C7.81574 4.72976 7.875 4.58668 7.875 4.4375V3.3125C7.875 3.16332 7.81574 3.02024 7.71025 2.91475C7.60476 2.80926 7.46168 2.75 7.3125 2.75H1.6875C1.23995 2.75 0.810725 2.92779 0.494257 3.24426C0.17779 3.56072 0 3.98995 0 4.4375L0 16.8125C0 17.2601 0.17779 17.6893 0.494257 18.0057C0.810725 18.3222 1.23995 18.5 1.6875 18.5H14.0625C14.5101 18.5 14.9393 18.3222 15.2557 18.0057C15.5722 17.6893 15.75 17.2601 15.75 16.8125V12.3125C15.75 12.1633 15.6907 12.0202 15.5852 11.9148C15.4798 11.8093 15.3367 11.75 15.1875 11.75ZM17.1562 0.5H12.6562C11.905 0.5 11.5295 1.4109 12.0586 1.94141L13.3147 3.19754L4.74609 11.763C4.66743 11.8414 4.60502 11.9345 4.56244 12.0371C4.51985 12.1397 4.49793 12.2496 4.49793 12.3607C4.49793 12.4717 4.51985 12.5817 4.56244 12.6842C4.60502 12.7868 4.66743 12.8799 4.74609 12.9583L5.54309 13.7539C5.62147 13.8326 5.71462 13.895 5.81718 13.9376C5.91974 13.9802 6.02969 14.0021 6.14074 14.0021C6.25179 14.0021 6.36175 13.9802 6.46431 13.9376C6.56687 13.895 6.66001 13.8326 6.7384 13.7539L15.3028 5.18703L16.5586 6.44141C17.0859 6.96875 18 6.59961 18 5.84375V1.34375C18 1.11997 17.9111 0.905362 17.7529 0.747129C17.5946 0.588895 17.38 0.5 17.1562 0.5Z" fill="white"/>
</g>
<defs>
<clipPath id="clip0_187_23">
<rect width="18" height="18" fill="white" transform="translate(0 0.5)"/>
</clipPath>
</defs>
</svg>
