<svg width="24" height="24" viewBox="0 0 24 24" fill="none" xmlns="http://www.w3.org/2000/svg">
<g clip-path="url(#clip0_8_55)">
<path d="M8.21833 12.7861C8.6799 12.7861 9.05409 12.4119 9.05409 11.9503C9.05409 11.4887 8.6799 11.1146 8.21833 11.1146C7.75675 11.1146 7.38257 11.4887 7.38257 11.9503C7.38257 12.4119 7.75675 12.7861 8.21833 12.7861Z" fill="black"/>
<path d="M8.2183 12.8059C7.74657 12.8059 7.36279 12.4221 7.36279 11.9503C7.36279 11.4786 7.74657 11.0948 8.2183 11.0948C8.69004 11.0948 9.07386 11.4786 9.07386 11.9503C9.07386 12.4221 8.69004 12.8059 8.2183 12.8059ZM8.2183 11.1344C7.76838 11.1344 7.40238 11.5004 7.40238 11.9503C7.40238 12.4002 7.76842 12.7663 8.2183 12.7663C8.66819 12.7663 9.03427 12.4002 9.03427 11.9503C9.03427 11.5004 8.66823 11.1344 8.2183 11.1344Z" fill="black"/>
<path d="M11.9985 12.7861C12.4601 12.7861 12.8342 12.4119 12.8342 11.9503C12.8342 11.4887 12.4601 11.1146 11.9985 11.1146C11.5369 11.1146 11.1627 11.4887 11.1627 11.9503C11.1627 12.4119 11.5369 12.7861 11.9985 12.7861Z" fill="black"/>
<path d="M11.9985 12.8059C11.5268 12.8059 11.1429 12.4221 11.1429 11.9503C11.1429 11.4786 11.5267 11.0948 11.9985 11.0948C12.4702 11.0948 12.854 11.4786 12.854 11.9503C12.854 12.4221 12.4702 12.8059 11.9985 12.8059ZM11.9985 11.1344C11.5486 11.1344 11.1825 11.5004 11.1825 11.9503C11.1825 12.4002 11.5486 12.7663 11.9985 12.7663C12.4484 12.7663 12.8144 12.4002 12.8144 11.9503C12.8144 11.5004 12.4484 11.1344 11.9985 11.1344Z" fill="black"/>
<path d="M15.7786 12.7861C16.2402 12.7861 16.6144 12.4119 16.6144 11.9503C16.6144 11.4887 16.2402 11.1146 15.7786 11.1146C15.3171 11.1146 14.9429 11.4887 14.9429 11.9503C14.9429 12.4119 15.3171 12.7861 15.7786 12.7861Z" fill="black"/>
<path d="M15.7786 12.8059C15.3069 12.8059 14.9231 12.4221 14.9231 11.9503C14.9231 11.4786 15.3069 11.0948 15.7786 11.0948C16.2504 11.0948 16.6342 11.4786 16.6342 11.9503C16.6342 12.4221 16.2504 12.8059 15.7786 12.8059ZM15.7786 11.1344C15.3287 11.1344 14.9627 11.5004 14.9627 11.9503C14.9627 12.4002 15.3287 12.7663 15.7786 12.7663C16.2285 12.7663 16.5946 12.4002 16.5946 11.9503C16.5946 11.5004 16.2285 11.1344 15.7786 11.1344Z" fill="black"/>
<path d="M5.68637 18.5713C6.12105 19.006 6.69903 19.2454 7.31375 19.2454C7.92847 19.2454 8.50645 19.006 8.94113 18.5713C9.37577 18.1367 9.61518 17.5587 9.61518 16.944C9.61518 16.3292 9.37581 15.7513 8.94109 15.3166L5.57486 11.9503L8.84177 8.68347C9.73912 7.78612 9.73912 6.32602 8.84177 5.42867C8.40709 4.99399 7.82911 4.75458 7.21439 4.75458C6.59964 4.75458 6.0217 4.99399 5.58701 5.42867L0.69276 10.323C-0.204553 11.2203 -0.204553 12.6804 0.69276 13.5778L5.68637 18.5713ZM1.89187 11.5221L6.78616 6.62778C6.90444 6.50954 7.05942 6.4504 7.21443 6.4504C7.36945 6.4504 7.52442 6.50954 7.6427 6.62778C7.87922 6.8643 7.87922 7.2478 7.6427 7.48428L3.60491 11.522C3.36839 11.7586 3.36839 12.142 3.60491 12.3786L7.74202 16.5157C7.97854 16.7522 7.97854 17.1357 7.74202 17.3722C7.62378 17.4904 7.46877 17.5496 7.31375 17.5496C7.15874 17.5496 7.00376 17.4904 6.88548 17.3722L1.89187 12.3786C1.65535 12.1421 1.65535 11.7586 1.89187 11.5221Z" fill="black"/>
<path d="M7.31378 19.2653C6.69372 19.2653 6.11079 19.0238 5.67238 18.5853L0.678774 13.5917C-0.226258 12.6867 -0.226258 11.214 0.678774 10.3089L5.57306 5.41461C6.01151 4.97617 6.59444 4.73474 7.21446 4.73474C7.83448 4.73474 8.41741 4.97621 8.85581 5.41461C9.76088 6.31969 9.76088 7.79233 8.85581 8.6974L5.60291 11.9503L8.95517 15.3026C9.39361 15.741 9.63504 16.324 9.63504 16.944C9.63504 17.564 9.39357 18.1469 8.95517 18.5853C8.51676 19.0238 7.93384 19.2653 7.31378 19.2653ZM7.21446 4.77433C6.60501 4.77433 6.03201 5.01168 5.60105 5.4426L0.706761 10.3369C-0.182833 11.2266 -0.182833 12.6741 0.706761 13.5637L5.70037 18.5573C6.13133 18.9883 6.70429 19.2256 7.31378 19.2256C7.92327 19.2256 8.49622 18.9883 8.92718 18.5573C9.3581 18.1264 9.59546 17.5534 9.59546 16.9439C9.59546 16.3345 9.3581 15.7615 8.92718 15.3305L5.54694 11.9503L8.82782 8.66937C9.71746 7.77974 9.71746 6.33219 8.82782 5.44256C8.3969 5.01168 7.82391 4.77433 7.21446 4.77433ZM7.31378 17.5694C7.14673 17.5694 6.98965 17.5043 6.87149 17.3862L1.87788 12.3926C1.75976 12.2745 1.69468 12.1174 1.69468 11.9503C1.69468 11.7832 1.75976 11.6262 1.87788 11.5081L6.77217 6.6138C6.8903 6.49568 7.04737 6.43064 7.21442 6.43064C7.38147 6.43064 7.53854 6.49572 7.65666 6.6138C7.77478 6.73192 7.83986 6.889 7.83986 7.05605C7.83986 7.22309 7.77478 7.38017 7.65666 7.49829L3.61895 11.536C3.39051 11.7645 3.39051 12.1361 3.61895 12.3646L7.75606 16.5017C7.87418 16.6198 7.93926 16.7769 7.93926 16.9439C7.93926 17.111 7.87418 17.2681 7.75606 17.3862C7.63794 17.5043 7.48082 17.5694 7.31378 17.5694ZM7.21446 6.47019C7.05798 6.47019 6.91084 6.53115 6.8002 6.64175L1.90591 11.536C1.79527 11.6467 1.73431 11.7938 1.73431 11.9503C1.73431 12.1068 1.79527 12.2539 1.90591 12.3646L6.89952 17.3581C7.0102 17.4688 7.15734 17.5297 7.31382 17.5297C7.47029 17.5297 7.61743 17.4688 7.72807 17.3581C7.83871 17.2474 7.89967 17.1003 7.89967 16.9438C7.89967 16.7873 7.83871 16.6402 7.72807 16.5296L3.59096 12.3926C3.34712 12.1487 3.34712 11.7519 3.59096 11.5081L7.62871 7.4703C7.73935 7.35966 7.80032 7.21253 7.80032 7.05605C7.80032 6.89957 7.73935 6.75243 7.62871 6.64179C7.51803 6.53115 7.37094 6.47019 7.21446 6.47019Z" fill="black"/>
<path d="M18.413 5.42867C17.9783 4.99399 17.4003 4.75458 16.7856 4.75458C16.1709 4.75458 15.5929 4.99395 15.1582 5.42867C14.2609 6.32602 14.2609 7.78612 15.1582 8.68347L18.4251 11.9503L15.0588 15.3166C14.1615 16.2139 14.1615 17.674 15.0588 18.5714C15.4935 19.0061 16.0715 19.2455 16.6862 19.2455C17.3009 19.2455 17.8789 19.0061 18.3136 18.5714L23.3072 13.5778C24.2046 12.6804 24.2046 11.2204 23.3072 10.323L18.413 5.42867ZM22.1081 12.3786L17.1145 17.3722C16.9962 17.4905 16.8412 17.5496 16.6862 17.5496C16.5313 17.5496 16.3762 17.4905 16.258 17.3722C16.0214 17.1357 16.0214 16.7522 16.258 16.5157L20.3951 12.3786C20.6316 12.1421 20.6316 11.7586 20.3951 11.5221L16.3573 7.48436C16.1208 7.24784 16.1208 6.86434 16.3573 6.62786C16.4755 6.50962 16.6305 6.45048 16.7855 6.45048C16.9405 6.45048 17.0955 6.50962 17.2138 6.62786L22.1081 11.5222C22.3446 11.7586 22.3446 12.1421 22.1081 12.3786Z" fill="black"/>
<path d="M16.6863 19.2652C16.0662 19.2652 15.4833 19.0238 15.0449 18.5853C14.1398 17.6803 14.1398 16.2077 15.0449 15.3025L18.3971 11.9503L15.1442 8.69743C14.2392 7.79236 14.2392 6.31972 15.1442 5.41464C15.5826 4.9762 16.1656 4.73477 16.7856 4.73477C17.4056 4.73477 17.9886 4.97624 18.427 5.41464L23.3213 10.3089C24.2263 11.214 24.2263 12.6867 23.3213 13.5917L18.3276 18.5853C17.8892 19.0238 17.3063 19.2652 16.6863 19.2652ZM16.7856 4.77436C16.1762 4.77436 15.6032 5.01171 15.1722 5.44263C14.2826 6.33226 14.2826 7.77981 15.1722 8.66944L18.4531 11.9503L15.0728 15.3305C14.1833 16.2202 14.1833 17.6677 15.0728 18.5573C15.5038 18.9883 16.0768 19.2257 16.6863 19.2257C17.2957 19.2257 17.8687 18.9883 18.2997 18.5573L23.2933 13.5638C24.1829 12.6741 24.1829 11.2266 23.2933 10.337L18.399 5.44267C17.9681 5.01171 17.3951 4.77436 16.7856 4.77436ZM16.6863 17.5694C16.5192 17.5694 16.3621 17.5043 16.244 17.3862C16.1259 17.2681 16.0608 17.111 16.0608 16.9439C16.0608 16.7769 16.1259 16.6198 16.244 16.5017L20.3811 12.3646C20.6096 12.1361 20.6096 11.7645 20.3811 11.5361L16.3433 7.49832C16.0995 7.25444 16.0995 6.85768 16.3433 6.61383C16.4615 6.49571 16.6185 6.43063 16.7856 6.43063C16.9527 6.43063 17.1097 6.49571 17.2279 6.61383L22.1221 11.5081C22.2403 11.6262 22.3053 11.7833 22.3053 11.9503C22.3053 12.1174 22.2403 12.2745 22.1221 12.3926L17.1285 17.3862C17.0104 17.5043 16.8533 17.5694 16.6863 17.5694ZM16.7856 6.47022C16.6291 6.47022 16.482 6.53118 16.3713 6.64182C16.1429 6.87022 16.1429 7.24193 16.3713 7.47033L20.4091 11.5081C20.653 11.752 20.653 12.1487 20.4091 12.3926L16.272 16.5297C16.1613 16.6403 16.1004 16.7875 16.1004 16.9439C16.1004 17.1004 16.1613 17.2476 16.272 17.3582C16.3826 17.4689 16.5298 17.5298 16.6863 17.5298C16.8427 17.5298 16.9899 17.4689 17.1006 17.3582L22.0941 12.3646C22.2048 12.254 22.2657 12.1068 22.2657 11.9504C22.2657 11.7939 22.2048 11.6468 22.0941 11.5362L17.1998 6.64186C17.0892 6.53118 16.9421 6.47022 16.7856 6.47022Z" fill="black"/>
</g>
<defs>
<clipPath id="clip0_8_55">
<rect width="24" height="24" fill="white"/>
</clipPath>
</defs>
</svg>
